<svg xmlns="http://www.w3.org/2000/svg" width="1200" height="630" viewBox="0 0 1200 630" role="img" aria-labelledby="title desc">
  <title id="title">Fatim Majumder social preview</title>
  <desc id="desc">Social preview image for Fatim Majumder's academic homepage, highlighting applied mathematics, mathematical machine learning, optimization, and scientific computing.</desc>
  <rect width="1200" height="630" fill="#f7f7f4" />

  <g opacity="0.24" stroke="#c7cfdb" stroke-width="1">
    <path d="M0 90H1200" />
    <path d="M0 180H1200" />
    <path d="M0 270H1200" />
    <path d="M0 360H1200" />
    <path d="M0 450H1200" />
    <path d="M0 540H1200" />
    <path d="M120 0V630" />
    <path d="M240 0V630" />
    <path d="M360 0V630" />
    <path d="M480 0V630" />
    <path d="M600 0V630" />
    <path d="M720 0V630" />
    <path d="M840 0V630" />
    <path d="M960 0V630" />
    <path d="M1080 0V630" />
  </g>

  <rect x="62" y="58" width="1076" height="514" rx="16" fill="#ffffff" stroke="#d9dee7" />

  <rect x="92" y="92" width="78" height="78" rx="12" fill="#172033" />
  <text x="131" y="141" fill="#ffffff" font-family="Georgia, serif" font-size="33" font-weight="700" text-anchor="middle">FM</text>

  <text x="198" y="121" fill="#7a2835" font-family="Helvetica, Arial, sans-serif" font-size="20" font-weight="700">Incoming Columbia M.S. Applied Mathematics</text>
  <text x="92" y="236" fill="#172033" font-family="Georgia, serif" font-size="64" font-weight="700">
    <tspan x="92" dy="0">Fatim Majumder</tspan>
  </text>
  <text x="92" y="314" fill="#173c66" font-family="Georgia, serif" font-size="38" font-weight="600">
    <tspan x="92" dy="0">Mathematical Machine Learning, Optimization,</tspan>
    <tspan x="92" dy="48">and Scientific Computing</tspan>
  </text>
  <text x="92" y="435" fill="#3e485c" font-family="Helvetica, Arial, sans-serif" font-size="25">
    <tspan x="92" dy="0">Research interests: stochastic processes, numerical linear algebra,</tspan>
    <tspan x="92" dy="38">graph learning, reproducible experimentation, and reliable AI evaluation.</tspan>
  </text>

  <g transform="translate(92 514)">
    <rect width="220" height="46" rx="8" fill="#eef2f6" stroke="#d9dee7" />
    <text x="18" y="30" fill="#172033" font-family="Helvetica, Arial, sans-serif" font-size="18" font-weight="700">fatimmajumder.github.io</text>
  </g>
  <g transform="translate(334 514)">
    <rect width="212" height="46" rx="8" fill="#f3f4ef" stroke="#d9dee7" />
    <text x="18" y="30" fill="#3f6b5b" font-family="Helvetica, Arial, sans-serif" font-size="18" font-weight="700">Emory CS + Math</text>
  </g>
  <g transform="translate(568 514)">
    <rect width="278" height="46" rx="8" fill="#f3f4ef" stroke="#d9dee7" />
    <text x="18" y="30" fill="#7a2835" font-family="Helvetica, Arial, sans-serif" font-size="18" font-weight="700">PhD-bound applied math</text>
  </g>
</svg>
